# xmcd CD database file
#
# Track frame offsets:
#	150
#	32417
#	85700
#	137404
#	167171
#	219863
#	242129
#
# Disc length: 3969 seconds
#
# Revision: 0
# Processed by: cddbd v1.5.2PL0 Copyright (c) Steve Scherf et al.
# Submitted via: CDex 1.51
#
DISCID=4d0f7f07
DTITLE=The Five Corners Quintet - The Helsinki Sessions
DYEAR=2010
DGENRE=Jazz
TTITLE0=The Five Corners Quintet - Trading Eights
TTITLE1=The Five Corners Quintet - Hot Rod
TTITLE2=The Five Corners Quintet - Unsquare Bossa
TTITLE3=The Five Corners Quintet - Midnight in Trieste
TTITLE4=The Five Corners Quintet - Skinny Dipping
TTITLE5=The Five Corners Quintet - Three Corners
TTITLE6=The Five Corners Quintet - Shake it
EXTD=YEAR: 2010
EXTT0=
EXTT1=
EXTT2=
EXTT3=
EXTT4=
EXTT5=
EXTT6=
PLAYORDER=
